<?xml version="1.0" encoding="UTF-8"?>
<svg width="100px" height="100px" viewBox="0 0 100 100" version="1.1" xmlns="http://www.w3.org/2000/svg" xmlns:xlink="http://www.w3.org/1999/xlink">
    <!-- Generator: Sketch 55.2 (78181) - https://sketchapp.com -->
    <title>Artboard</title>
    <desc>Created with Sketch.</desc>
    <g id="Artboard" stroke="none" stroke-width="1" fill="none" fill-rule="evenodd">
        <g id="noun_eraser_2187826" transform="translate(10.000000, 12.000000)" fill="#3177EF">
            <g id="Group">
                <polygon id="Rectangle" transform="translate(47.200021, 32.061298) rotate(46.000000) translate(-47.200021, -32.061298) " points="26.0505959 9.9923329 68.3494465 9.9923329 68.3494465 54.1302639 26.0505959 54.1302639"></polygon>
                <path d="M27.7227723,79.0804652 C26.4365531,79.0823825 25.2024742,78.5730415 24.2930693,77.6649195 L1.42574257,54.8343908 C0.513012552,53.9262882 -2.06271249e-05,52.6927394 -2.06271249e-05,51.4062529 C-2.06271249e-05,50.1197664 0.513012552,48.8862176 1.42574257,47.9781149 L16.4752475,32.9528276 L18.6217822,35.095908 L3.57227723,50.1211954 C3.22853318,50.4592472 3.03457743,50.9205747 3.03366337,51.4022989 C3.03188619,51.8845628 3.22626233,52.3468902 3.57227723,52.6834023 L26.4316832,75.5218391 C27.1446749,76.2264036 28.2929489,76.2264036 29.0059406,75.5218391 L44.0554455,60.4965517 L46.2019802,62.6396322 L31.1524752,77.6649195 C30.2411076,78.5701026 29.0083027,79.0789178 27.7227723,79.0804652 L27.7227723,79.0804652 Z" id="Path" fill-rule="nonzero"></path>
                <path d="M46.4316832,63.9207406 C45.5048241,63.9223034 44.6155165,63.5552006 43.960396,62.9005977 L16.2376238,35.2224368 C14.8770199,33.8611101 14.8770199,31.6570508 16.2376238,30.2957241 L45.5445545,1.03595402 C46.1970311,0.382085649 47.0834485,0.0145402687 48.0079208,0.0145402687 C48.9323931,0.0145402687 49.8188105,0.382085649 50.4712871,1.03595402 L78.1940594,28.7141149 C78.8489817,29.3655416 79.2171195,30.2505326 79.2171195,31.1735172 C79.2171195,32.0965019 78.8489817,32.9814928 78.1940594,33.6329195 L48.8871287,62.8926897 C48.237681,63.5470537 47.3543646,63.9168806 46.4316832,63.9207406 Z M47.9683168,3.02878161 C47.848885,3.02918057 47.7346607,3.07764778 47.6514851,3.16321839 L18.3445545,32.4229885 C18.2572741,32.5049449 18.2084271,32.6196941 18.2098686,32.7393103 C18.2098686,32.85855 18.2588459,32.9725905 18.3445545,33.0556322 L46.0673267,60.7337931 C46.2457689,60.9075796 46.5304687,60.9075796 46.7089109,60.7337931 L76.0158416,31.474023 C76.1009915,31.3907277 76.1489756,31.2767192 76.1489756,31.1577011 C76.1489756,31.0386831 76.1009915,30.9246746 76.0158416,30.8413793 L48.3168317,3.16321839 C48.2261519,3.06936119 48.0986477,3.02017748 47.9683168,3.02878161 Z" id="Shape" fill-rule="nonzero"></path>
            </g>
        </g>
    </g>
</svg>