<?xml version="1.0" encoding="UTF-8"?>
<svg width="100px" height="100px" viewBox="0 0 100 100" version="1.1" xmlns="http://www.w3.org/2000/svg" xmlns:xlink="http://www.w3.org/1999/xlink">
    <!-- Generator: Sketch 55.2 (78181) - https://sketchapp.com -->
    <title>Artboard</title>
    <desc>Created with Sketch.</desc>
    <g id="Artboard" stroke="none" stroke-width="1" fill="none" fill-rule="evenodd">
        <g id="pen" transform="translate(6.000000, 2.000000)" fill="#3177EF" fill-rule="nonzero">
            <g id="Group" transform="translate(56.642433, 35.656615) rotate(40.843589) translate(-56.642433, -35.656615) translate(50.642433, -1.343385)">
                <polygon id="Path" points="5.72786182 0 11.4557236 73.9414889 0 73.9414889"></polygon>
            </g>
            <g id="Group" transform="translate(52.758163, 40.022890) rotate(40.843595) translate(-52.758163, -40.022890) translate(44.758163, -4.977110)">
                <path d="M6.99736428,0.824686887 C7.05360147,0.792369694 7.1077558,0.754067836 7.16503442,0.725341442 C7.33895313,0.636768395 7.52641043,0.58410334 7.71595058,0.570937076 C8.226251,0.536226017 8.7323857,0.793566628 9.0510631,1.25318893 C9.13021174,1.36689757 9.19790465,1.49137861 9.25101755,1.62304125 C9.30517188,1.75470389 9.3447462,1.89354812 9.36869908,2.03718009 C9.38119623,2.10779914 9.38640338,2.18081206 9.39473481,2.25262804 L15.1225966,87.2348762 C15.1236381,87.3066922 15.1288452,87.3785082 15.1267623,87.4503242 C15.1215552,87.5927592 15.101768,87.7351943 15.0674009,87.8740385 C14.9299322,88.4306124 14.5612662,88.8890377 14.0884572,89.0901225 C13.9707757,89.1391968 13.8489284,89.1727109 13.7249983,89.1894679 C13.663554,89.1978465 13.6010682,89.1978465 13.5385825,89.2026342 L2.08285884,89.2026342 C2.02037308,89.1978465 1.95788731,89.1978465 1.89644298,89.1894679 C1.77251288,89.1727109 1.65066563,89.1391968 1.53298411,89.0901225 C1.06017515,88.8890377 0.691509136,88.4306124 0.554040452,87.8740385 C0.519673281,87.7351943 0.499886122,87.5927592 0.494678975,87.4503242 C0.492596116,87.3785082 0.497803264,87.3066922 0.498844693,87.2348762 L6.22670651,2.25262804 C6.24961796,2.06111875 6.2475351,2.01084756 6.300648,1.82532294 C6.37979664,1.5488314 6.51622389,1.29508159 6.69743261,1.09160296 C6.74221408,1.04013484 6.79220269,0.995848317 6.84010844,0.947970994 C6.89217991,0.907275269 6.94425138,0.866579545 6.99736428,0.824686887 Z M3.80017596,85.5495945 L11.8212654,85.5495945 L7.81072066,26.0404759 C6.47352528,45.8772478 5.13632991,65.7128226 3.80017596,85.5495945 Z" id="Shape"></path>
            </g>
            <g id="Group" transform="translate(14.881034, 82.282430) rotate(-137.008140) translate(-14.881034, -82.282430) translate(8.381034, 71.782430)">
                <polygon id="Path" points="6.35606577 0 12.4006843 7.68554286 10.0923731 20.1222449 2.61975844 20.1222449 0.311447223 7.68554286"></polygon>
            </g>
            <g id="Group" transform="translate(14.545969, 82.815903) rotate(-137.008140) translate(-14.545969, -82.815903) translate(6.045969, 70.815903)">
                <path d="M13.1316319,23.4252804 C13.0595965,23.4771883 13.0437063,23.4920191 12.9674335,23.5354522 C12.824422,23.6191404 12.6676391,23.6784637 12.5055594,23.7113033 C12.4080997,23.7314309 12.31064,23.737787 12.2110617,23.740965 L4.73844703,23.740965 C4.57212998,23.7346089 4.41110964,23.713422 4.252208,23.6593955 C3.87508143,23.5301555 3.55939683,23.2494292 3.38672371,22.8903115 C3.32845977,22.7695463 3.29244207,22.6445436 3.26383977,22.5142443 L0.954469209,10.0786016 C0.939638389,9.9800826 0.929044946,9.88474161 0.929967753,9.78622259 C0.933282324,9.55634488 0.988368227,9.32858586 1.09218397,9.12519175 C1.13773577,9.03620683 1.19176233,8.95675601 1.25108561,8.87730519 L7.29570416,1.19176233 C7.35290875,1.12290495 7.36562088,1.1048961 7.43024088,1.04239479 C7.52664121,0.949172488 7.63469433,0.868662322 7.75228155,0.80404232 C8.1982655,0.559333788 8.75124322,0.559333788 9.19722717,0.80404232 C9.31481438,0.868662322 9.4228675,0.949172488 9.51926783,1.04239479 C9.58388783,1.1048961 9.59659996,1.12290495 9.65380456,1.19176233 L15.6984231,8.87730519 C15.7577464,8.95675601 15.8117729,9.03620683 15.8573247,9.12519175 C15.9611405,9.32858586 16.0162264,9.55634488 16.019541,9.78622259 C16.0204638,9.88474161 16.0098703,9.98114194 15.9950395,10.0786016 L13.6856689,22.5142443 C13.6644821,22.611704 13.6401171,22.7059856 13.6030401,22.7992079 C13.5532509,22.9220918 13.4875716,23.0375604 13.4081207,23.1434948 C13.3551535,23.2144709 13.3392634,23.2293017 13.2788807,23.2939217 C13.2068453,23.3617197 13.2079047,23.3617197 13.1316319,23.4252804 Z M12.9208224,10.1983075 L8.47475436,4.54458702 L4.02868635,10.1983075 L5.98635461,20.7409019 L10.9631541,20.7409019 C11.6157102,17.2259976 12.2682663,13.7121525 12.9208224,10.1983075 Z" id="Shape"></path>
            </g>
        </g>
    </g>
</svg>